<svg version="1" xmlns="http://www.w3.org/2000/svg" width="341.333" height="341.333" viewBox="0 0 256.000000 256.000000"><path d="M87 2.5c0 2.4-.3 2.5-5.5 2.5S76 5.1 76 7.5s-.3 2.5-5.5 2.5c-4.8 0-5.5.2-5.5 2 0 1.5-.7 2-2.5 2-2 0-2.5.5-2.5 2.4s-.6 2.5-2.7 2.8c-2 .2-2.9.9-3.1 2.5-.3 1.7-1 2.3-2.8 2.3-1.9 0-2.4.5-2.4 2.5s-.5 2.5-2.5 2.5-2.5.5-2.5 2.5c0 2.1-.5 2.5-3 2.5-2.9 0-3 .2-3 4.5 0 4.1-.2 4.5-2.5 4.5s-2.5.3-2.5 5c0 4.9-.1 5-3 5h-3v73h6v9.5c0 9.5 0 9.5 2.5 9.5 2.3 0 2.5.3 2.5 5 0 4.9.1 5 3 5 2.5 0 3 .4 3 2.5 0 2 .5 2.5 2.5 2.5 1.8 0 2.5.5 2.5 2 0 1.9.7 2 11 2s11-.1 11-2c0-1.8.7-2 5.5-2 5.2 0 5.5-.1 5.5-2.5 0-2 .5-2.5 2.5-2.5 2.3 0 2.5.4 2.5 4.5s-.2 4.5-2.5 4.5c-2 0-2.5.5-2.5 2.5 0 2.5-.1 2.5-8.5 2.5s-8.5 0-8.5 2.5c0 2.4-.3 2.5-5.5 2.5s-5.5.1-5.5 2.5c0 2.3-.3 2.5-4.9 2.5-4.4 0-5 .3-5.3 2.3-.2 1.6-1.1 2.3-3 2.5-2 .2-2.8.9-2.8 2.3s-.7 1.9-2.5 1.9c-2 0-2.5.5-2.5 2.5 0 2.1-.5 2.5-3 2.5s-3 .4-3 2.5c0 2-.5 2.5-2.5 2.5-2.3 0-2.5.3-2.5 5 0 4.9-.1 5-3 5-2.5 0-3 .4-3 2.5 0 2-.5 2.5-2.5 2.5-2.3 0-2.5.4-2.5 4.5 0 4.3-.1 4.5-3 4.5H5v20H2.5c-2.4 0-2.5.2-2.5 7v7h6v-14h43v2.5c0 2.4.3 2.5 5.5 2.5s5.5.1 5.5 2.6v2.5l10.8-.2c10.2-.2 10.7-.1 11 2l.3 2.1H196v-14h3c2.5 0 3 .4 3 2.5 0 2 .5 2.5 2.5 2.5 1.8 0 2.5.5 2.5 2 0 1.9.7 2 19 2s19-.1 19-2c0-1.6.7-2 3-2 2.5 0 3-.4 3-2.5 0-2 .5-2.5 2.5-2.5h2.5v-10c0-9.9 0-10-2.4-10-2.7 0-3.6 1.6-3.6 6.6v3.4h-8c-7.9 0-8 0-8-2.6v-2.6l-8 .4-8 .3V208h5.5c5.2 0 5.5.1 5.5 2.5s.3 2.5 5.5 2.5 5.5.1 5.5 2.5c0 2 .5 2.5 2.5 2.5 1.8 0 2.5.5 2.5 2 0 1.6.7 2 3 2 2.9 0 3-.2 3-4.4 0-4.1-.2-4.5-2.7-4.8-2-.2-2.9-.9-3.1-2.5-.3-1.7-1-2.3-2.8-2.3-2.2 0-2.4-.4-2.4-5 0-4.9-.1-5-3-5-2.5 0-3-.4-3-2.5 0-2-.5-2.5-2.5-2.5s-2.5-.5-2.5-2.5-.5-2.5-2.5-2.5c-1.8 0-2.5-.5-2.5-2 0-1.6-.7-2-3-2-2.5 0-3-.4-3-2.5 0-2.4-.3-2.5-5.5-2.5H207v-5c0-4.7-.2-5-2.5-5s-2.5.3-2.5 5 .2 5 2.5 5c2.4 0 2.5.2 2.5 7.5s.1 7.5 2.5 7.5h2.5v33h-2.5c-1.9 0-2.5-.5-2.5-2.3 0-2.2-.2-2.2-10.7-1.9-6 .2-13.2.1-16-.3-4.8-.6-5.3-.9-5.3-3.1 0-2.4 0-2.4 10.5-2.4 9.8 0 10.5-.1 10.5-2 0-2.1-1.7-2.2-24.7-2.4-1.7 0-2.3-.6-2.3-2.2 0-1.8.8-2.2 4.6-2.8 2.6-.3 7.5-.6 11-.6 5.7 0 6.4-.2 6.4-2s-.7-2-8.5-2c-8.4 0-8.5 0-8.5-2.5V198h27v-2.5c0-2-.5-2.5-2.5-2.5-2.3 0-2.5-.4-2.5-4.5s-.2-4.5-2.5-4.5c-2.4 0-2.5-.2-2.5-7.3v-7.4l3 .5c5 .7 8-.5 8-3.3 0-2 .5-2.5 2.5-2.5 1.8 0 2.5-.5 2.5-2 0-1.8.7-2 5.5-2h5.5v-5c0-4.9.1-5 3-5h3v-7.5c0-7.3.1-7.5 2.5-7.5h2.5v-24h5V58h-2.5c-2.4 0-2.5-.2-2.5-7.5s-.1-7.5-2.5-7.5c-2.3 0-2.5-.4-2.5-4.5 0-4.3-.1-4.5-3-4.5-2.5 0-3-.4-3-2.5 0-2-.5-2.5-2.5-2.5s-2.5-.5-2.5-2.5c0-2.1-.5-2.5-3-2.5s-3-.4-3-2.5c0-2-.5-2.5-2.5-2.5s-2.5-.5-2.5-2.5c0-2.1-.5-2.5-3-2.5-2.3 0-3-.5-3-1.9 0-1.7-.8-2-5.2-2.3-4.6-.3-5.3-.6-5.6-2.6-.3-1.9-.9-2.2-5.3-2.2-4.6 0-4.9-.2-4.9-2.5V0H87v2.5zm11 5c0 2 .5 2.5 2.4 2.5 1.8 0 2.5.6 2.8 2.2.2 1.8.9 2.3 3.1 2.3l2.7-.1v7.3c0 7.3 0 7.3 2.8 7.3h2.7l-.2 17.2c-.1 9.5-.3 18.3-.3 19.5 0 2.2-.4 2.3-8 2.3-7.2 0-8 .2-8 1.9 0 1.4-.8 2.1-2.7 2.3-2 .2-2.9.9-3.1 2.5-.3 1.7-1 2.3-2.8 2.3-2.2 0-2.4.4-2.4 5 0 4.7-.2 5-2.5 5H82v53h-3c-2.9 0-3 .1-3 5 0 4.7-.2 5-2.5 5-1.8 0-2.5.5-2.5 1.9s-.8 2.1-2.7 2.3c-2 .2-2.9.9-3.1 2.5-.3 2.1-.8 2.3-7.5 2.3-6.5 0-7.3-.2-8.2-2.2-.6-1.3-2-2.4-3.2-2.6-2-.3-2.3-.9-2.3-4.7 0-4-.2-4.4-2.7-4.7l-2.8-.3-.3-9.3c-.3-9-.3-9.2-2.7-9.2-2.3 0-2.5-.4-2.5-5s.2-5 2.4-5c2.3 0 2.5-.5 2.8-4.8.2-3.3.7-4.7 1.8-4.8.8-.1 2.1-.2 2.8-.2.9-.2 1.2-3.3 1.2-12.2V82h2.5c2.4 0 2.5-.2 2.5-7s.1-7 2.5-7c2.9 0 3.8-2.4 3.3-9.6-.3-4.5-.5-4.9-3-5.2-1.9-.2-2.8-1-3-2.5-.2-1.4-1.1-2.3-2.5-2.5-2.1-.3-2.3-.8-2.3-7.3V34h3c2.5 0 3-.4 3-2.5 0-2 .5-2.5 2.4-2.5 1.8 0 2.5-.6 2.8-2.3.2-1.4 1.1-2.3 2.6-2.5 1.4-.2 2.2-1 2.2-2.3 0-1.4.7-1.9 3-1.9 2.5 0 3-.4 3-2.5 0-2.4.3-2.5 5.5-2.5s5.5-.1 5.5-2.5c0-2.3.3-2.5 5-2.5 4.5 0 5-.3 5.6-2.5.6-2.2 1.1-2.5 5.5-2.5 4.6 0 4.9.2 4.9 2.5zm55 2c0 4.1.2 4.5 2.5 4.5s2.5.3 2.5 4.9c0 4.7.2 5 2.8 5.3l2.7.3.3 19.2.2 19.3h-28V24h-2.5c-2.3 0-2.5-.4-2.5-4.4 0-4.1-.2-4.5-2.7-4.8-2.6-.3-2.8-.7-3.1-5.1l-.3-4.7H153v4.5zm32 3c0 2.4.3 2.5 5.5 2.5s5.5.1 5.5 2.5c0 2.1.5 2.5 3 2.5 2.3 0 3 .5 3 1.9 0 1.3.8 2.1 2.3 2.3 1.4.2 2.3 1.1 2.5 2.5.3 1.7 1 2.3 2.8 2.3 1.9 0 2.4.5 2.4 2.5 0 2.1.5 2.5 3 2.5 2.9 0 3 .1 3 5 0 4.7.2 5 2.5 5 2.4 0 2.5.2 2.5 7v7h6v53h-6v24h-2.5c-2.4 0-2.5.2-2.5 7.5v7.5h-3c-2.3 0-3 .4-3 2 0 1.7-.7 2-5 2h-5v-4.5c0-4.1.2-4.5 2.5-4.5s2.5-.3 2.5-5c0-4.9.1-5 3-5h3l-.2-26.3-.3-26.2-2.7-.3c-2.6-.3-2.8-.6-2.8-5.3 0-4.6-.2-4.9-2.5-4.9-1.8 0-2.5-.5-2.5-1.9s-.8-2.1-2.7-2.3c-2-.2-2.9-.9-3.1-2.6-.3-2-.9-2.2-5.8-2.2H185V24h-2.5c-2.3 0-2.5-.4-2.5-4.5 0-3.9-.3-4.5-2.4-5.1-1.3-.3-2.6-1.4-2.9-2.5-.5-1.7.1-1.9 4.9-1.9 5.1 0 5.4.1 5.4 2.5zm-22 67c0 2.2.4 2.4 5.8 2.7 5 .3 5.7.6 6 2.5.3 2.2 0 2.3-5.2 2.3-5.3 0-5.6.1-5.6 2.5 0 2 .5 2.5 2.5 2.5s2.5.5 2.5 2.4-.4 2.2-2.5 1.8c-1.6-.3-2.5-1.1-2.5-2.3 0-1.4-.7-1.9-3-1.9-2.5 0-3 .4-3 2.5 0 2-.5 2.5-2.5 2.5-1.8 0-2.5.5-2.5 2s.7 2 2.5 2c2.4 0 2.5.2 2.5 7.5s.1 7.5 2.5 7.5c2.3 0 2.5-.4 2.5-4.5V107h12v28h-3c-2.9 0-3 .1-3 5 0 4.7-.2 5-2.5 5-2 0-2.5.5-2.5 2.5 0 2.1-.5 2.5-3 2.5-2.3 0-3 .5-3 1.9 0 1.6-1 2.1-5.2 2.8-4.3.7-5.3 1.2-5.3 2.8 0 1.9-.8 2-19.3 2.3l-19.2.2v-2.5c0-2.1-.5-2.5-3-2.5s-3-.4-3-2.5c0-2-.5-2.5-2.5-2.5-2.3 0-2.5-.4-2.5-4.5s-.2-4.5-2.5-4.5H93v-35h2.5c2.3 0 2.5-.3 2.5-5.1 0-4.3.3-5 1.6-4.5.9.3 2.2.6 3 .6.8 0 1.4.9 1.4 1.9 0 1.5 1 2 4.9 2.6 4.1.5 5 1.1 5.3 2.8.3 2 .9 2.2 5.8 2.2 4.9 0 5.5-.2 5.8-2.2.2-1.4 1.1-2.3 2.5-2.5 1.9-.3 2.2-1 2.5-5.1.3-4.2.5-4.7 2.8-4.7 2.2 0 2.4-.4 2.4-5v-5h-5.5c-5.2 0-5.5-.1-5.5-2.5V77h38v2.5zm-43 14.7c0 1.8-.6 2.3-2.5 2.3s-2.5-.5-2.5-2.3c0-1.7.6-2.2 2.5-2.2s2.5.5 2.5 2.2zm65 70.3c0 4.1-.2 4.5-2.5 4.5s-2.5-.4-2.5-4.5.2-4.5 2.5-4.5 2.5.4 2.5 4.5zm-38 2c0 2-.5 2.5-2.5 2.5s-2.5.5-2.5 2.5v2.5h-33v-2.5c0-2.1-.5-2.5-2.9-2.5-2 0-3-.6-3.4-2-.3-1 0-2.1.7-2.4.6-.2 10.7-.5 22.4-.5l21.2-.1v2.5z"/><path d="M49 113.5c0 2-.5 2.5-2.5 2.5H44v20.2l2.5-.4c2.1-.4 2.5-.1 2.5 1.8 0 2 .5 2.4 3 2.4 2.3 0 3-.4 3-2 0-1.5.7-2 2.5-2H60v-20h-2.5c-2 0-2.5-.5-2.5-2.5 0-2.1-.5-2.5-3-2.5s-3 .4-3 2.5zM109 118.5c0 2.1-.5 2.5-3 2.5h-3v19h3c2.5 0 3 .4 3 2.5 0 2 .5 2.5 2.5 2.5s2.5.5 2.5 2.5v2.5h33v-2.5c0-2.1.5-2.5 3.1-2.5s3-.3 2.7-2.3c-.2-1.8.2-2.3 2.5-2.5 2.1-.3 2.7-.9 2.7-2.8V135h-27v-2.5c0-2.4-.3-2.5-5.5-2.5H120v-14h-5.5c-5.2 0-5.5.1-5.5 2.5zm5.2 7.2c.3 4.4.5 4.8 3.1 5.1 1.9.2 2.7.9 2.7 2.2 0 1.6.9 1.9 5.3 2.2 4.5.3 5.2.6 5.5 2.5.3 2.1.9 2.2 8.5 2.5 7.4.3 8.2.5 8.2 2.3 0 1.9-.8 2-16.2 2.3-16.1.2-16.2.2-16.5-2-.2-1.7-1.1-2.4-3-2.6l-2.8-.3v-9.5c0-9.3 0-9.4 2.4-9.4 2.3 0 2.5.5 2.8 4.7zM142 118.5c0 2.5.1 2.5 8 2.5s8 0 8-2.5-.1-2.5-8-2.5-8 0-8 2.5z"/></svg>