<svg version="1" xmlns="http://www.w3.org/2000/svg" width="846.667" height="846.667" viewBox="0 0 635.000000 635.000000"><path d="M241 30.6v9.6l-2.7-.2c-1.6-.1-6.3-.2-10.5-.1l-7.8.1v20h41v25h-57v35h37v20h39v38H166v-17h-44v17h-19v20H82v21h20v20h20.5v-18.5l27.8-.1 27.7-.1V238h43v38h-20v20h20v24l3.8.1c2 0 5.7.1 8.2.2l4.5.2.3 8.2.3 8.3H261v116h-21v20h-97v20h-20v37h19v24h37v21h63v7.5c0 8.4-.9 7.8 9.8 7.6l6.2-.1v23h60v-20h20v-38h-18v-9.9c0-11.6-.7-10.9 11.8-10.7l8.2.2V513h58v37h-21v43h20v20l48.8-.2 48.7-.3v-38l11.8-.3 11.7-.3v-21.5l7.8.1h7.7l.5-9.5.5-9.5 9.8-.3 9.7-.3V475h-19l.1-6.8c0-3.7.1-7.9 0-9.5l-.1-2.7h-59v-60h-20v-98h20v-99h-20v-18.5h-17.5l-.3-8.8-.3-8.7h-10.4c-7.7 0-10.5-.3-10.6-1.3-.1-.6-.2-5.5-.3-10.7l-.1-9.5-9.2-.3-9.3-.3V124h21V84h18V61h18v17h20V59h-15.9v-7.8c.1-4.2.1-8.5 0-9.5-.1-1.5-1.3-1.7-10.6-1.7H438V22h-39v21.9h-38V21h-22v20h-39V21h-59v9.6z"/></svg>