<?xml version="1.0" standalone="yes"?>

<svg version="1.1" viewBox="0.0 0.0 816.5721784776903 533.2939632545932" fill="none" stroke="none" stroke-linecap="square" stroke-miterlimit="10" xmlns="http://www.w3.org/2000/svg" xmlns:xlink="http://www.w3.org/1999/xlink"><clipPath id="p.0"><path d="m0 0l816.5722 0l0 533.29395l-816.5722 0l0 -533.29395z" clip-rule="nonzero"></path></clipPath><g clip-path="url(#p.0)"><path fill="#000000" fill-opacity="0.0" d="m0 0l816.5722 0l0 533.29395l-816.5722 0z" fill-rule="evenodd"></path><path fill="#b7b7b7" d="m35.12336 264.9042l0 0c0 -43.226074 35.04165 -78.267715 78.267715 -78.267715l0 0c20.757896 0 40.665596 8.246033 55.343636 22.924072c14.67804 14.678055 22.924088 34.585754 22.924088 55.343643l0 0c0 43.226074 -35.041656 78.2677 -78.26772 78.2677l0 0c-43.226067 0 -78.267715 -35.041626 -78.267715 -78.2677z" fill-rule="evenodd"></path><path fill="#000000" d="m83.28487 251.7642l-2.71875 -4.234375l-2.125 0l0 4.234375l-1.328125 0l0 -10.671875l4.28125 0q1.515625 0 2.421875 0.90625q0.921875 0.890625 0.921875 2.3125q0 1.34375 -0.78125 2.171875q-0.765625 0.8125 -1.984375 0.921875l2.875 4.359375l-1.5625 0zm-2.046875 -5.40625q0.96875 0 1.546875 -0.5625q0.578125 -0.578125 0.578125 -1.484375q0 -0.921875 -0.578125 -1.46875q-0.578125 -0.5625 -1.546875 -0.5625l-2.796875 0l0 4.078125l2.796875 0zm9.040527 5.59375q-1.75 0 -2.84375 -1.125q-1.09375 -1.140625 -1.09375 -2.9375q0 -1.703125 1.078125 -2.875q1.09375 -1.171875 2.734375 -1.171875q1.65625 0 2.671875 1.15625q1.03125 1.15625 1.03125 2.984375l0 0.3125l-6.25 0q0.0625 1.1875 0.84375 1.9375q0.796875 0.734375 1.9375 0.734375q1.40625 0 2.390625 -0.984375l0.578125 0.796875q-1.1875 1.171875 -3.078125 1.171875zm2.40625 -4.546875q0 -1.0625 -0.703125 -1.8125q-0.703125 -0.75 -1.84375 -0.75q-1.078125 0 -1.796875 0.75q-0.703125 0.75 -0.734375 1.8125l5.078125 0zm6.929886 4.546875q-1.65625 0 -2.609375 -1.359375l0 4.109375l-1.203125 0l0 -10.671875l1.203125 0l0 1.15625q0.40625 -0.59375 1.09375 -0.96875q0.6875 -0.375 1.515625 -0.375q1.546875 0 2.484375 1.09375q0.953125 1.078125 0.953125 2.953125q0 1.859375 -0.9375 2.96875q-0.9375 1.09375 -2.5 1.09375zm-0.3125 -1.0625q1.125 0 1.796875 -0.8125q0.6875 -0.828125 0.6875 -2.1875q0 -1.328125 -0.671875 -2.140625q-0.671875 -0.828125 -1.8125 -0.828125q-0.71875 0 -1.359375 0.359375q-0.625 0.359375 -0.9375 0.875l0 3.484375q0.3125 0.515625 0.9375 0.890625q0.640625 0.359375 1.359375 0.359375zm9.027023 1.0625q-1.6875 0 -2.765625 -1.140625q-1.0625 -1.140625 -1.0625 -2.921875q0 -1.78125 1.0625 -2.90625q1.078125 -1.140625 2.765625 -1.140625q1.671875 0 2.75 1.140625q1.078125 1.125 1.078125 2.90625q0 1.78125 -1.078125 2.921875q-1.078125 1.140625 -2.75 1.140625zm0 -1.0625q1.125 0 1.84375 -0.84375q0.71875 -0.84375 0.71875 -2.15625q0 -1.296875 -0.71875 -2.125q-0.71875 -0.84375 -1.84375 -0.84375q-1.125 0 -1.859375 0.828125q-0.71875 0.828125 -0.71875 2.140625q0 1.328125 0.71875 2.171875q0.71875 0.828125 1.859375 0.828125zm8.214523 1.0625q-1.953125 0 -3.109375 -1.21875l0.625 -0.859375q0.375 0.453125 1.046875 0.78125q0.6875 0.328125 1.5 0.328125q0.890625 0 1.34375 -0.375q0.46875 -0.375 0.46875 -0.953125q0 -0.515625 -0.5 -0.8125q-0.5 -0.296875 -1.875 -0.609375q-1.171875 -0.25 -1.796875 -0.765625q-0.609375 -0.515625 -0.609375 -1.40625q0 -0.96875 0.78125 -1.59375q0.78125 -0.625 2.09375 -0.625q1.75 0 2.875 1.125l-0.5625 0.828125q-0.359375 -0.421875 -0.953125 -0.6875q-0.59375 -0.28125 -1.359375 -0.28125q-0.796875 0 -1.25 0.359375q-0.453125 0.34375 -0.453125 0.84375q0 0.46875 0.5 0.75q0.515625 0.265625 1.890625 0.546875q1.171875 0.28125 1.78125 0.828125q0.609375 0.546875 0.609375 1.46875q0 1.0625 -0.828125 1.703125q-0.828125 0.625 -2.21875 0.625zm5.5962677 -9.015625q-0.328125 0 -0.578125 -0.234375q-0.234375 -0.234375 -0.234375 -0.5625q0 -0.34375 0.234375 -0.578125q0.25 -0.25 0.578125 -0.25q0.328125 0 0.5625 0.25q0.25 0.234375 0.25 0.578125q0 0.328125 -0.25 0.5625q-0.234375 0.234375 -0.5625 0.234375zm-0.59375 8.828125l0 -7.734375l1.203125 0l0 7.734375l-1.203125 0zm5.553131 0.1875q-1.71875 0 -1.71875 -1.796875l0 -5.0625l-1.28125 0l0 -1.0625l1.28125 0l0 -2.109375l1.203125 0l0 2.109375l1.5625 0l0 1.0625l-1.5625 0l0 4.796875q0 0.4375 0.1875 0.71875q0.203125 0.28125 0.59375 0.28125q0.5 0 0.8125 -0.328125l0.359375 0.90625q-0.5 0.484375 -1.4375 0.484375zm6.125885 0q-1.6875 0 -2.765625 -1.140625q-1.0625 -1.140625 -1.0625 -2.921875q0 -1.78125 1.0625 -2.90625q1.078125 -1.140625 2.765625 -1.140625q1.671875 0 2.75 1.140625q1.078125 1.125 1.078125 2.90625q0 1.78125 -1.078125 2.921875q-1.078125 1.140625 -2.75 1.140625zm0 -1.0625q1.125 0 1.84375 -0.84375q0.71875 -0.84375 0.71875 -2.15625q0 -1.296875 -0.71875 -2.125q-0.71875 -0.84375 -1.84375 -0.84375q-1.125 0 -1.859375 0.828125q-0.71875 0.828125 -0.71875 2.140625q0 1.328125 0.71875 2.171875q0.71875 0.828125 1.859375 0.828125zm5.7770233 0.875l0 -7.734375l1.203125 0l0 1.25q1.0625 -1.40625 2.5625 -1.40625l0 1.234375l-0.46875 -0.046875q-0.546875 0 -1.203125 0.390625q-0.65625 0.390625 -0.890625 0.84375l0 5.46875l-1.203125 0zm5.030014 1.9375q0.265625 0.125 0.65625 0.125q0.40625 0 0.671875 -0.171875q0.28125 -0.15625 0.484375 -0.640625l0.515625 -1.171875l-3.234375 -7.8125l1.296875 0l2.578125 6.34375l2.5625 -6.34375l1.3125 0l-3.875 9.296875q-0.640625 1.546875 -2.28125 1.578125q-0.453125 0 -0.875 -0.109375l0.1875 -1.09375z" fill-rule="nonzero"></path><path fill="#000000" d="m79.81712 270.9517q-1.6875 0 -2.765625 -1.140625q-1.0625 -1.140625 -1.0625 -2.921875q0 -1.78125 1.0625 -2.90625q1.078125 -1.140625 2.765625 -1.140625q1.671875 0 2.75 1.140625q1.078125 1.125 1.078125 2.90625q0 1.78125 -1.078125 2.921875q-1.078125 1.140625 -2.75 1.140625zm0 -1.0625q1.125 0 1.84375 -0.84375q0.71875 -0.84375 0.71875 -2.15625q0 -1.296875 -0.71875 -2.125q-0.71875 -0.84375 -1.84375 -0.84375q-1.125 0 -1.859375 0.828125q-0.71875 0.828125 -0.71875 2.140625q0 1.328125 0.71875 2.171875q0.71875 0.828125 1.859375 0.828125zm6.1051483 0.875l0 -6.671875l-1.28125 0l0 -1.0625l1.28125 0l0 -0.578125q0 -1.203125 0.59375 -1.859375q0.609375 -0.65625 1.65625 -0.65625q0.96875 0 1.625 0.59375l-0.5 0.78125q-0.40625 -0.390625 -0.953125 -0.390625q-1.21875 0 -1.21875 1.53125l0 0.578125l1.5625 0l0 1.0625l-1.5625 0l0 6.671875l-1.203125 0zm10.281021 0.1875q-1.71875 0 -1.71875 -1.796875l0 -5.0625l-1.28125 0l0 -1.0625l1.28125 0l0 -2.109375l1.203125 0l0 2.109375l1.5625 0l0 1.0625l-1.5625 0l0 4.796875q0 0.4375 0.1875 0.71875q0.203125 0.28125 0.59375 0.28125q0.5 0 0.8125 -0.328125l0.359375 0.90625q-0.5 0.484375 -1.4375 0.484375zm6.23526 0q-1.75 0 -2.84375 -1.125q-1.09375 -1.140625 -1.09375 -2.9375q0 -1.703125 1.078125 -2.875q1.09375 -1.171875 2.734375 -1.171875q1.65625 0 2.671875 1.15625q1.03125 1.15625 1.03125 2.984375l0 0.3125l-6.25 0q0.0625 1.1875 0.84375 1.9375q0.796875 0.734375 1.9375 0.734375q1.40625 0 2.390625 -0.984375l0.578125 0.796875q-1.1875 1.171875 -3.078125 1.171875zm2.40625 -4.546875q0 -1.0625 -0.703125 -1.8125q-0.703125 -0.75 -1.84375 -0.75q-1.078125 0 -1.796875 0.75q-0.703125 0.75 -0.734375 1.8125l5.078125 0zm8.117386 4.359375l-2.3125 -3.171875l-2.328125 3.171875l-1.375 0l2.96875 -3.96875l-2.796875 -3.765625l1.390625 0l2.140625 2.953125l2.140625 -2.953125l1.390625 0l-2.796875 3.765625l2.96875 3.96875l-1.390625 0zm4.729141 0.1875q-1.71875 0 -1.71875 -1.796875l0 -5.0625l-1.28125 0l0 -1.0625l1.28125 0l0 -2.109375l1.203125 0l0 2.109375l1.5625 0l0 1.0625l-1.5625 0l0 4.796875q0 0.4375 0.1875 0.71875q0.203125 0.28125 0.59375 0.28125q0.5 0 0.8125 -0.328125l0.359375 0.90625q-0.5 0.484375 -1.4375 0.484375zm7.207016 -0.1875l0 -6.671875l-1.28125 0l0 -1.0625l1.28125 0l0 -0.578125q0 -1.203125 0.59375 -1.859375q0.609375 -0.65625 1.65625 -0.65625q0.96875 0 1.625 0.59375l-0.5 0.78125q-0.40625 -0.390625 -0.953125 -0.390625q-1.21875 0 -1.21875 1.53125l0 0.578125l1.5625 0l0 1.0625l-1.5625 0l0 6.671875l-1.203125 0zm4.79364 -8.828125q-0.328125 0 -0.578125 -0.234375q-0.234375 -0.234375 -0.234375 -0.5625q0 -0.34375 0.234375 -0.578125q0.25 -0.25 0.578125 -0.25q0.328125 0 0.5625 0.25q0.25 0.234375 0.25 0.578125q0 0.328125 -0.25 0.5625q-0.234375 0.234375 -0.5625 0.234375zm-0.59375 8.828125l0 -7.734375l1.203125 0l0 7.734375l-1.203125 0zm3.600006 0l0 -10.671875l1.203125 0l0 10.671875l-1.203125 0zm7.084381 0.1875q-1.75 0 -2.84375 -1.125q-1.09375 -1.140625 -1.09375 -2.9375q0 -1.703125 1.078125 -2.875q1.09375 -1.171875 2.734375 -1.171875q1.65625 0 2.671875 1.15625q1.03125 1.15625 1.03125 2.984375l0 0.3125l-6.25 0q0.0625 1.1875 0.84375 1.9375q0.796875 0.734375 1.9375 0.734375q1.40625 0 2.390625 -0.984375l0.578125 0.796875q-1.1875 1.171875 -3.078125 1.171875zm2.40625 -4.546875q0 -1.0625 -0.703125 -1.8125q-0.703125 -0.75 -1.84375 -0.75q-1.078125 0 -1.796875 0.75q-0.703125 0.75 -0.734375 1.8125l5.078125 0zm5.554886 4.546875q-1.953125 0 -3.109375 -1.21875l0.625 -0.859375q0.375 0.453125 1.046875 0.78125q0.6875 0.328125 1.5 0.328125q0.890625 0 1.34375 -0.375q0.46875 -0.375 0.46875 -0.953125q0 -0.515625 -0.5 -0.8125q-0.5 -0.296875 -1.875 -0.609375q-1.171875 -0.25 -1.796875 -0.765625q-0.609375 -0.515625 -0.609375 -1.40625q0 -0.96875 0.78125 -1.59375q0.78125 -0.625 2.09375 -0.625q1.75 0 2.875 1.125l-0.5625 0.828125q-0.359375 -0.421875 -0.953125 -0.6875q-0.59375 -0.28125 -1.359375 -0.28125q-0.796875 0 -1.25 0.359375q-0.453125 0.34375 -0.453125 0.84375q0 0.46875 0.5 0.75q0.515625 0.265625 1.890625 0.546875q1.171875 0.28125 1.78125 0.828125q0.609375 0.546875 0.609375 1.46875q0 1.0625 -0.828125 1.703125q-0.828125 0.625 -2.21875 0.625z" fill-rule="nonzero"></path><path fill="#000000" d="m70.01985 280.93607q-0.328125 0 -0.578125 -0.234375q-0.234375 -0.234375 -0.234375 -0.5625q0 -0.34375 0.234375 -0.578125q0.25 -0.25 0.578125 -0.25q0.328125 0 0.5625 0.25q0.25 0.234375 0.25 0.578125q0 0.328125 -0.25 0.5625q-0.234375 0.234375 -0.5625 0.234375zm-0.59375 8.828125l0 -7.734375l1.203125 0l0 7.734375l-1.203125 0zm8.818756 0l0 -5.0625q0 -1.015625 -0.484375 -1.390625q-0.46875 -0.390625 -1.25 -0.390625q-0.671875 0 -1.328125 0.359375q-0.640625 0.359375 -0.953125 0.84375l0 5.640625l-1.203125 0l0 -7.734375l1.203125 0l0 1.125q0.484375 -0.578125 1.21875 -0.9375q0.734375 -0.375 1.53125 -0.375q2.453125 0 2.453125 2.5l0 5.421875l-1.1875 0zm16.897156 0l0 -8.78125l-3.640625 8.78125l-0.546875 0l-3.609375 -8.78125l0 8.78125l-1.328125 0l0 -10.671875l1.90625 0l3.3125 8.03125l3.328125 -8.03125l1.90625 0l0 10.671875l-1.328125 0zm8.600281 0l0 -0.875q-0.96875 1.0625 -2.5625 1.0625q-1.171875 0 -1.9375 -0.734375q-0.765625 -0.734375 -0.765625 -1.828125q0 -1.109375 0.75 -1.8125q0.765625 -0.71875 1.953125 -0.71875q1.671875 0 2.5625 1.046875l0 -1.390625q0 -0.78125 -0.5625 -1.203125q-0.546875 -0.421875 -1.390625 -0.421875q-1.359375 0 -2.359375 1.0625l-0.5625 -0.828125q1.234375 -1.28125 3.078125 -1.28125q1.421875 0 2.203125 0.6875q0.796875 0.6875 0.796875 1.921875l0 5.3125l-1.203125 0zm-2.125 -0.671875q1.421875 0 2.125 -0.953125l0 -1.46875q-0.703125 -0.953125 -2.125 -0.953125q-0.84375 0 -1.375 0.46875q-0.53125 0.46875 -0.53125 1.21875q0 0.75 0.53125 1.21875q0.53125 0.46875 1.375 0.46875zm5.728897 0.671875l0 -7.734375l1.203125 0l0 1.25q1.0625 -1.40625 2.5625 -1.40625l0 1.234375l-0.46875 -0.046875q-0.546875 0 -1.203125 0.390625q-0.65625 0.390625 -0.890625 0.84375l0 5.46875l-1.203125 0zm10.545639 0l-2.78125 -3.46875l-1.28125 1.265625l0 2.203125l-1.203125 0l0 -10.671875l1.203125 0l0 7.0625l4.0625 -4.125l1.515625 0l-3.421875 3.515625l3.4375 4.21875l-1.53125 0zm8.552139 0l0 -1.15625q-0.421875 0.59375 -1.109375 0.96875q-0.671875 0.375 -1.5 0.375q-1.546875 0 -2.5 -1.09375q-0.9375 -1.109375 -0.9375 -2.953125q0 -1.859375 0.953125 -2.953125q0.953125 -1.109375 2.484375 -1.109375q0.78125 0 1.46875 0.359375q0.6875 0.359375 1.140625 1.0l0 -4.109375l1.203125 0l0 10.671875l-1.203125 0zm-2.3125 -0.875q0.71875 0 1.359375 -0.34375q0.640625 -0.359375 0.953125 -0.875l0 -3.5q-0.3125 -0.515625 -0.953125 -0.875q-0.640625 -0.375 -1.359375 -0.375q-1.125 0 -1.8125 0.8125q-0.671875 0.8125 -0.671875 2.171875q0 1.328125 0.671875 2.15625q0.671875 0.828125 1.8125 0.828125zm9.293762 1.0625q-1.6875 0 -2.765625 -1.140625q-1.0625 -1.140625 -1.0625 -2.921875q0 -1.78125 1.0625 -2.90625q1.078125 -1.140625 2.765625 -1.140625q1.671875 0 2.75 1.140625q1.078125 1.125 1.078125 2.90625q0 1.78125 -1.078125 2.921875q-1.078125 1.140625 -2.75 1.140625zm0 -1.0625q1.125 0 1.84375 -0.84375q0.71875 -0.84375 0.71875 -2.15625q0 -1.296875 -0.71875 -2.125q-0.71875 -0.84375 -1.84375 -0.84375q-1.125 0 -1.859375 0.828125q-0.71875 0.828125 -0.71875 2.140625q0 1.328125 0.71875 2.171875q0.71875 0.828125 1.859375 0.828125zm12.464523 0.875l-2.015625 -6.203125l-2.015625 6.203125l-1.203125 0l-2.46875 -7.734375l1.25 0l1.890625 6.171875l2.03125 -6.171875l1.03125 0l2.03125 6.171875l1.875 -6.171875l1.25 0l-2.453125 7.734375l-1.203125 0zm10.275269 0l0 -5.0625q0 -1.015625 -0.484375 -1.390625q-0.46875 -0.390625 -1.25 -0.390625q-0.671875 0 -1.328125 0.359375q-0.640625 0.359375 -0.953125 0.84375l0 5.640625l-1.203125 0l0 -7.734375l1.203125 0l0 1.125q0.484375 -0.578125 1.21875 -0.9375q0.734375 -0.375 1.53125 -0.375q2.453125 0 2.453125 2.5l0 5.421875l-1.1875 0z" fill-rule="nonzero"></path><path fill="#666666" d="m174.4567 255.45538l1.1811066 0l0 18.897644l-1.1811066 0zm2.3621979 0l2.3622131 0l0 18.897644l-2.3622131 0zm3.5433044 0l78.81889 0l0 -9.448822l18.897644 18.897644l-18.897644 18.897644l0 -9.448822l-78.81889 0z" fill-rule="evenodd"></path><path fill="#b7b7b7" d="m290.31497 264.9042l0 0c0 -43.226074 35.041626 -78.267715 78.2677 -78.267715l0 0c20.757904 0 40.66559 8.246033 55.343628 22.924072c14.67804 14.678055 22.924103 34.585754 22.924103 55.343643l0 0c0 43.226074 -35.041656 78.2677 -78.26773 78.2677l0 0c-43.226074 0 -78.2677 -35.041626 -78.2677 -78.2677zm39.13385 0l0 0c0 21.613037 17.520813 39.13385 39.13385 39.13385c21.613037 0 39.13385 -17.520813 39.13385 -39.13385c0 -21.613037 -17.520813 -39.133865 -39.13385 -39.133865l0 0c-21.613037 0 -39.13385 17.520828 -39.13385 39.133865z" fill-rule="evenodd"></path><path fill="#000000" d="m357.32864 242.2642l0 -10.671875l6.984375 0l0 1.1875l-5.65625 0l0 3.4375l5.546875 0l0 1.1875l-5.546875 0l0 4.859375l-1.328125 0zm9.346893 -8.828125q-0.328125 0 -0.578125 -0.234375q-0.234375 -0.234375 -0.234375 -0.5625q0 -0.34375 0.234375 -0.578125q0.25 -0.25 0.578125 -0.25q0.328125 0 0.5625 0.25q0.25 0.234375 0.25 0.578125q0 0.328125 -0.25 0.5625q-0.234375 0.234375 -0.5625 0.234375zm-0.59375 8.828125l0 -7.734375l1.203125 0l0 7.734375l-1.203125 0zm3.600006 0l0 -10.671875l1.203125 0l0 10.671875l-1.203125 0zm7.084381 0.1875q-1.75 0 -2.84375 -1.125q-1.09375 -1.140625 -1.09375 -2.9375q0 -1.703125 1.078125 -2.875q1.09375 -1.171875 2.734375 -1.171875q1.65625 0 2.671875 1.15625q1.03125 1.15625 1.03125 2.984375l0 0.3125l-6.25 0q0.0625 1.1875 0.84375 1.9375q0.796875 0.734375 1.9375 0.734375q1.40625 0 2.390625 -0.984375l0.578125 0.796875q-1.1875 1.171875 -3.078125 1.171875zm2.40625 -4.546875q0 -1.0625 -0.703125 -1.8125q-0.703125 -0.75 -1.84375 -0.75q-1.078125 0 -1.796875 0.75q-0.703125 0.75 -0.734375 1.8125l5.078125 0z" fill-rule="nonzero"></path><path fill="#000000" d="m334.67996 261.4517q-1.703125 0 -2.78125 -1.140625q-1.078125 -1.15625 -1.078125 -2.921875q0 -1.7343597 1.078125 -2.8906097q1.078125 -1.15625 2.78125 -1.15625q1.796875 0 2.828125 1.34375l-0.796875 0.734375q-0.734375 -1.0 -1.96875 -1.0q-1.1875 0 -1.9375 0.828125q-0.734375 0.81248474 -0.734375 2.1406097q0 1.34375 0.734375 2.171875q0.734375 0.828125 1.9375 0.828125q1.21875 0 1.96875 -1.015625l0.796875 0.734375q-1.03125 1.34375 -2.828125 1.34375zm7.8887634 0q-1.6875 0 -2.765625 -1.140625q-1.0625 -1.140625 -1.0625 -2.921875q0 -1.7812347 1.0625 -2.9062347q1.078125 -1.140625 2.765625 -1.140625q1.671875 0 2.75 1.140625q1.078125 1.125 1.078125 2.9062347q0 1.78125 -1.078125 2.921875q-1.078125 1.140625 -2.75 1.140625zm0 -1.0625q1.125 0 1.84375 -0.84375q0.71875 -0.84375 0.71875 -2.15625q0 -1.296875 -0.71875 -2.1249847q-0.71875 -0.84375 -1.84375 -0.84375q-1.125 0 -1.859375 0.828125q-0.71875 0.82810974 -0.71875 2.1406097q0 1.328125 0.71875 2.171875q0.71875 0.828125 1.859375 0.828125zm10.995789 0.875l0 -5.0625q0 -1.0156097 -0.484375 -1.3906097q-0.46875 -0.390625 -1.25 -0.390625q-0.671875 0 -1.328125 0.359375q-0.640625 0.359375 -0.953125 0.84375l0 5.6406097l-1.203125 0l0 -7.7343597l1.203125 0l0 1.125q0.484375 -0.578125 1.21875 -0.9375q0.734375 -0.375 1.53125 -0.375q2.453125 0 2.453125 2.5l0 5.4218597l-1.1875 0zm5.6597595 0l-3.21875 -7.7343597l1.296875 0l2.578125 6.3437347l2.5625 -6.3437347l1.3125 0l-3.21875 7.7343597l-1.3125 0zm9.261902 0.1875q-1.75 0 -2.84375 -1.125q-1.09375 -1.140625 -1.09375 -2.9375q0 -1.7031097 1.078125 -2.8749847q1.09375 -1.171875 2.734375 -1.171875q1.65625 0 2.671875 1.15625q1.03125 1.15625 1.03125 2.9843597l0 0.3125l-6.25 0q0.0625 1.1875 0.84375 1.9375q0.796875 0.734375 1.9375 0.734375q1.40625 0 2.390625 -0.984375l0.578125 0.796875q-1.1875 1.171875 -3.078125 1.171875zm2.40625 -4.546875q0 -1.0624847 -0.703125 -1.8124847q-0.703125 -0.75 -1.84375 -0.75q-1.078125 0 -1.796875 0.75q-0.703125 0.75 -0.734375 1.8124847l5.078125 0zm3.1173706 4.359375l0 -7.7343597l1.203125 0l0 1.25q1.0625 -1.40625 2.5625 -1.40625l0 1.234375l-0.46875 -0.046875q-0.546875 0 -1.203125 0.390625q-0.65625 0.390625 -0.890625 0.84375l0 5.4687347l-1.203125 0zm7.717499 0.1875q-1.953125 0 -3.109375 -1.21875l0.625 -0.859375q0.375 0.453125 1.046875 0.78125q0.6875 0.328125 1.5 0.328125q0.890625 0 1.34375 -0.375q0.46875 -0.375 0.46875 -0.953125q0 -0.515625 -0.5 -0.8125q-0.5 -0.296875 -1.875 -0.609375q-1.171875 -0.25 -1.796875 -0.765625q-0.609375 -0.515625 -0.609375 -1.4062347q0 -0.96875 0.78125 -1.59375q0.78125 -0.625 2.09375 -0.625q1.75 0 2.875 1.125l-0.5625 0.828125q-0.359375 -0.421875 -0.953125 -0.6875q-0.59375 -0.28125 -1.359375 -0.28125q-0.796875 0 -1.25 0.359375q-0.453125 0.34375 -0.453125 0.84375q0 0.46875 0.5 0.74998474q0.515625 0.265625 1.890625 0.546875q1.171875 0.28125 1.78125 0.828125q0.609375 0.546875 0.609375 1.46875q0 1.0625 -0.828125 1.703125q-0.828125 0.625 -2.21875 0.625zm5.596283 -9.01561q-0.328125 0 -0.578125 -0.234375q-0.234375 -0.234375 -0.234375 -0.5625q0 -0.34375 0.234375 -0.578125q0.25 -0.25 0.578125 -0.25q0.328125 0 0.5625 0.25q0.25 0.234375 0.25 0.578125q0 0.328125 -0.25 0.5625q-0.234375 0.234375 -0.5625 0.234375zm-0.59375 8.82811l0 -7.7343597l1.203125 0l0 7.7343597l-1.203125 0zm6.975006 0.1875q-1.6875 0 -2.765625 -1.140625q-1.0625 -1.140625 -1.0625 -2.921875q0 -1.7812347 1.0625 -2.9062347q1.078125 -1.140625 2.765625 -1.140625q1.671875 0 2.75 1.140625q1.078125 1.125 1.078125 2.9062347q0 1.78125 -1.078125 2.921875q-1.078125 1.140625 -2.75 1.140625zm0 -1.0625q1.125 0 1.84375 -0.84375q0.71875 -0.84375 0.71875 -2.15625q0 -1.296875 -0.71875 -2.1249847q-0.71875 -0.84375 -1.84375 -0.84375q-1.125 0 -1.859375 0.828125q-0.71875 0.82810974 -0.71875 2.1406097q0 1.328125 0.71875 2.171875q0.71875 0.828125 1.859375 0.828125zm10.995758 0.875l0 -5.0625q0 -1.0156097 -0.484375 -1.3906097q-0.46875 -0.390625 -1.25 -0.390625q-0.671875 0 -1.328125 0.359375q-0.640625 0.359375 -0.953125 0.84375l0 5.6406097l-1.203125 0l0 -7.7343597l1.203125 0l0 1.125q0.484375 -0.578125 1.21875 -0.9375q0.734375 -0.375 1.53125 -0.375q2.453125 0 2.453125 2.5l0 5.4218597l-1.1875 0z" fill-rule="nonzero"></path><path fill="#000000" d="m333.5132 280.2642l-2.015625 -6.203125l-2.015625 6.203125l-1.203125 0l-2.46875 -7.734375l1.25 0l1.890625 6.171875l2.03125 -6.171875l1.03125 0l2.03125 6.171875l1.875 -6.171875l1.25 0l-2.453125 7.734375l-1.203125 0zm5.6502686 -8.828125q-0.328125 0 -0.578125 -0.234375q-0.234375 -0.234375 -0.234375 -0.5625q0 -0.34375 0.234375 -0.578125q0.25 -0.25 0.578125 -0.25q0.328125 0 0.5625 0.25q0.25 0.234375 0.25 0.578125q0 0.328125 -0.25 0.5625q-0.234375 0.234375 -0.5625 0.234375zm-0.59375 8.828125l0 -7.734375l1.203125 0l0 7.734375l-1.203125 0zm5.553131 0.1875q-1.71875 0 -1.71875 -1.796875l0 -5.0625l-1.28125 0l0 -1.0625l1.28125 0l0 -2.109375l1.203125 0l0 2.109375l1.5625 0l0 1.0625l-1.5625 0l0 4.796875q0 0.4375 0.1875 0.71875q0.203125 0.28125 0.59375 0.28125q0.5 0 0.8125 -0.328125l0.359375 0.90625q-0.5 0.484375 -1.4375 0.484375zm7.98526 -0.1875l0 -5.09375q0 -0.859375 -0.421875 -1.296875q-0.40625 -0.453125 -1.328125 -0.453125q-0.65625 0 -1.28125 0.34375q-0.609375 0.328125 -1.0 0.859375l0 5.640625l-1.203125 0l0 -10.671875l1.203125 0l0 4.0625q0.5 -0.59375 1.234375 -0.953125q0.75 -0.359375 1.53125 -0.359375q2.453125 0 2.453125 2.46875l0 5.453125l-1.1875 0zm7.772522 0l0 -10.671875l4.28125 0q1.53125 0 2.4375 0.921875q0.90625 0.90625 0.90625 2.296875q0 1.40625 -0.921875 2.3125q-0.921875 0.90625 -2.421875 0.90625l-2.953125 0l0 4.234375l-1.328125 0zm4.125 -5.421875q0.96875 0 1.546875 -0.5625q0.578125 -0.5625 0.578125 -1.46875q0 -0.921875 -0.578125 -1.46875q-0.578125 -0.5625 -1.546875 -0.5625l-2.796875 0l0 4.0625l2.796875 0zm10.048279 5.421875l0 -0.875q-0.96875 1.0625 -2.5625 1.0625q-1.171875 0 -1.9375 -0.734375q-0.765625 -0.734375 -0.765625 -1.828125q0 -1.109375 0.75 -1.8125q0.765625 -0.71875 1.953125 -0.71875q1.671875 0 2.5625 1.046875l0 -1.390625q0 -0.78125 -0.5625 -1.203125q-0.546875 -0.421875 -1.390625 -0.421875q-1.359375 0 -2.359375 1.0625l-0.5625 -0.828125q1.234375 -1.28125 3.078125 -1.28125q1.421875 0 2.203125 0.6875q0.796875 0.6875 0.796875 1.921875l0 5.3125l-1.203125 0zm-2.125 -0.671875q1.421875 0 2.125 -0.953125l0 -1.46875q-0.703125 -0.953125 -2.125 -0.953125q-0.84375 0 -1.375 0.46875q-0.53125 0.46875 -0.53125 1.21875q0 0.75 0.53125 1.21875q0.53125 0.46875 1.375 0.46875zm10.947632 0.671875l0 -5.0625q0 -1.015625 -0.484375 -1.390625q-0.46875 -0.390625 -1.25 -0.390625q-0.671875 0 -1.328125 0.359375q-0.640625 0.359375 -0.953125 0.84375l0 5.640625l-1.203125 0l0 -7.734375l1.203125 0l0 1.125q0.484375 -0.578125 1.21875 -0.9375q0.734375 -0.375 1.53125 -0.375q2.453125 0 2.453125 2.5l0 5.421875l-1.1875 0zm9.1910095 0l0 -1.15625q-0.421875 0.59375 -1.109375 0.96875q-0.671875 0.375 -1.5 0.375q-1.546875 0 -2.5 -1.09375q-0.9375 -1.109375 -0.9375 -2.953125q0 -1.859375 0.953125 -2.953125q0.953125 -1.109375 2.484375 -1.109375q0.78125 0 1.46875 0.359375q0.6875 0.359375 1.140625 1.0l0 -4.109375l1.203125 0l0 10.671875l-1.203125 0zm-2.3125 -0.875q0.71875 0 1.359375 -0.34375q0.640625 -0.359375 0.953125 -0.875l0 -3.5q-0.3125 -0.515625 -0.953125 -0.875q-0.640625 -0.375 -1.359375 -0.375q-1.125 0 -1.8125 0.8125q-0.671875 0.8125 -0.671875 2.171875q0 1.328125 0.671875 2.15625q0.671875 0.828125 1.8125 0.828125zm9.293762 1.0625q-1.6875 0 -2.765625 -1.140625q-1.0625 -1.140625 -1.0625 -2.921875q0 -1.78125 1.0625 -2.90625q1.078125 -1.140625 2.765625 -1.140625q1.671875 0 2.75 1.140625q1.078125 1.125 1.078125 2.90625q0 1.78125 -1.078125 2.921875q-1.078125 1.140625 -2.75 1.140625zm0 -1.0625q1.125 0 1.84375 -0.84375q0.71875 -0.84375 0.71875 -2.15625q0 -1.296875 -0.71875 -2.125q-0.71875 -0.84375 -1.84375 -0.84375q-1.125 0 -1.859375 0.828125q-0.71875 0.828125 -0.71875 2.140625q0 1.328125 0.71875 2.171875q0.71875 0.828125 1.859375 0.828125zm9.183289 1.0625q-1.703125 0 -2.78125 -1.140625q-1.078125 -1.15625 -1.078125 -2.921875q0 -1.734375 1.078125 -2.890625q1.078125 -1.15625 2.78125 -1.15625q1.796875 0 2.828125 1.34375l-0.796875 0.734375q-0.734375 -1.0 -1.96875 -1.0q-1.1875 0 -1.9375 0.828125q-0.734375 0.8125 -0.734375 2.140625q0 1.34375 0.734375 2.171875q0.734375 0.828125 1.9375 0.828125q1.21875 0 1.96875 -1.015625l0.796875 0.734375q-1.03125 1.34375 -2.828125 1.34375z" fill-rule="nonzero"></path><path fill="#000000" d="m339.38986 299.2642l0 -0.875q-0.96875 1.0625 -2.5625 1.0625q-1.171875 0 -1.9375 -0.734375q-0.765625 -0.734375 -0.765625 -1.828125q0 -1.109375 0.75 -1.8125q0.765625 -0.71875 1.953125 -0.71875q1.671875 0 2.5625 1.046875l0 -1.390625q0 -0.78125 -0.5625 -1.203125q-0.546875 -0.421875 -1.390625 -0.421875q-1.359375 0 -2.359375 1.0625l-0.5625 -0.828125q1.234375 -1.28125 3.078125 -1.28125q1.421875 0 2.203125 0.6875q0.796875 0.6875 0.796875 1.921875l0 5.3125l-1.203125 0zm-2.125 -0.671875q1.421875 0 2.125 -0.953125l0 -1.46875q-0.703125 -0.953125 -2.125 -0.953125q-0.84375 0 -1.375 0.46875q-0.53125 0.46875 -0.53125 1.21875q0 0.75 0.53125 1.21875q0.53125 0.46875 1.375 0.46875zm10.947632 0.671875l0 -5.0625q0 -1.015625 -0.484375 -1.390625q-0.46875 -0.390625 -1.25 -0.390625q-0.671875 0 -1.328125 0.359375q-0.640625 0.359375 -0.953125 0.84375l0 5.640625l-1.203125 0l0 -7.734375l1.203125 0l0 1.125q0.484375 -0.578125 1.21875 -0.9375q0.734375 -0.375 1.53125 -0.375q2.453125 0 2.453125 2.5l0 5.421875l-1.1875 0zm9.19104 0l0 -1.15625q-0.421875 0.59375 -1.109375 0.96875q-0.671875 0.375 -1.5 0.375q-1.546875 0 -2.5 -1.09375q-0.9375 -1.109375 -0.9375 -2.953125q0 -1.859375 0.953125 -2.953125q0.953125 -1.109375 2.484375 -1.109375q0.78125 0 1.46875 0.359375q0.6875 0.359375 1.140625 1.0l0 -4.109375l1.203125 0l0 10.671875l-1.203125 0zm-2.3125 -0.875q0.71875 0 1.359375 -0.34375q0.640625 -0.359375 0.953125 -0.875l0 -3.5q-0.3125 -0.515625 -0.953125 -0.875q-0.640625 -0.375 -1.359375 -0.375q-1.125 0 -1.8125 0.8125q-0.671875 0.8125 -0.671875 2.171875q0 1.328125 0.671875 2.15625q0.671875 0.828125 1.8125 0.828125zm11.796753 1.0625q-1.71875 0 -2.78125 -1.234375l0.6875 -1.0q0.90625 1.0625 2.015625 1.0625q1.0 0 1.578125 -0.609375q0.578125 -0.625 0.578125 -1.640625l0 -7.4375l1.328125 0l0 7.453125q0 1.625 -0.921875 2.515625q-0.90625 0.890625 -2.484375 0.890625zm9.334412 0q-1.75 0 -2.84375 -1.125q-1.09375 -1.140625 -1.09375 -2.9375q0 -1.703125 1.078125 -2.875q1.09375 -1.171875 2.734375 -1.171875q1.65625 0 2.671875 1.15625q1.03125 1.15625 1.03125 2.984375l0 0.3125l-6.25 0q0.0625 1.1875 0.84375 1.9375q0.796875 0.734375 1.9375 0.734375q1.40625 0 2.390625 -0.984375l0.578125 0.796875q-1.1875 1.171875 -3.078125 1.171875zm2.40625 -4.546875q0 -1.0625 -0.703125 -1.8125q-0.703125 -0.75 -1.84375 -0.75q-1.078125 0 -1.796875 0.75q-0.703125 0.75 -0.734375 1.8125l5.078125 0zm8.382996 4.359375l-2.78125 -3.46875l-1.28125 1.265625l0 2.203125l-1.203125 0l0 -10.671875l1.203125 0l0 7.0625l4.0625 -4.125l1.515625 0l-3.421875 3.515625l3.4375 4.21875l-1.53125 0zm2.7084045 1.9375q0.265625 0.125 0.65625 0.125q0.40625 0 0.671875 -0.171875q0.28125 -0.15625 0.484375 -0.640625l0.515625 -1.171875l-3.234375 -7.8125l1.296875 0l2.578125 6.34375l2.5625 -6.34375l1.3125 0l-3.875 9.296875q-0.640625 1.546875 -2.28125 1.578125q-0.453125 0 -0.875 -0.109375l0.1875 -1.09375zm8.089996 -1.9375l0 -10.671875l1.203125 0l0 10.671875l-1.203125 0zm3.600006 0l0 -10.671875l1.203125 0l0 10.671875l-1.203125 0z" fill-rule="nonzero"></path><path fill="#666666" d="m459.0866 259.13516l92.06299 0l0 -5.7795258l11.559082 11.559067l-11.559082 11.5590515l0 -5.779541l-92.06299 0z" fill-rule="evenodd"></path><path fill="#666666" d="m574.9449 264.90683l0 0c0 -56.324356 45.66693 -101.98425 102.0 -101.98425l0 0c27.052063 0 52.996155 10.744736 72.12488 29.870499c19.128723 19.125748 29.875122 45.06584 29.875122 72.113754l0 0c0 56.32434 -45.66693 101.98425 -102.0 101.98425l0 0c-56.33307 0 -102.0 -45.659912 -102.0 -101.98425z" fill-rule="evenodd"></path><path fill="#b7b7b7" d="m591.83466 264.90683l0 0c0 -26.52707 21.504395 -48.031494 48.031494 -48.031494l0 0c12.7387085 0 24.95575 5.06044 33.96338 14.068085c9.00769 9.00766 14.068115 21.224655 14.068115 33.96341l0 0c0 26.52707 -21.504456 48.031494 -48.031494 48.031494l0 0c-26.5271 0 -48.031494 -21.504425 -48.031494 -48.031494z" fill-rule="evenodd"></path><path fill="#000000" d="m627.8706 270.7668l0 -4.890625l-6.234375 0l0 4.890625l-1.328125 0l0 -10.671875l1.328125 0l0 4.59375l6.234375 0l0 -4.59375l1.328125 0l0 10.671875l-1.328125 0zm6.470154 0l0 -9.484375l-3.375 0l0 -1.1875l8.09375 0l0 1.1875l-3.390625 0l0 9.484375l-1.328125 0zm15.60437 0l0 -8.78125l-3.640625 8.78125l-0.546875 0l-3.609375 -8.78125l0 8.78125l-1.328125 0l0 -10.671875l1.90625 0l3.3125 8.03125l3.328125 -8.03125l1.90625 0l0 10.671875l-1.328125 0zm3.8190308 0l0 -10.671875l1.328125 0l0 9.484375l4.953125 0l0 1.1875l-6.28125 0z" fill-rule="nonzero"></path><path fill="#000000" fill-opacity="0.0" d="m679.8189 220.09842l96.06299 0l0 92.8504l-96.06299 0z" fill-rule="evenodd"></path><path fill="#ffffff" d="m710.91974 263.07114q-2.34375 0 -3.828125 -1.5625q-1.46875 -1.5625 -1.46875 -3.953125q0 -2.4062653 1.484375 -3.9531403q1.484375 -1.5625 3.8125 -1.5625q2.359375 0 3.828125 1.5625q1.46875 1.5625 1.46875 3.9531403q0 2.40625 -1.484375 3.96875q-1.46875 1.546875 -3.8125 1.546875zm0 -1.171875q1.75 0 2.828125 -1.21875q1.09375 -1.234375 1.09375 -3.125q0 -1.9218903 -1.09375 -3.1250153q-1.078125 -1.203125 -2.828125 -1.203125q-1.71875 0 -2.828125 1.1875q-1.09375 1.171875 -1.09375 3.1406403q0 1.921875 1.078125 3.140625q1.09375 1.203125 2.84375 1.203125zm12.55249 0.984375l0 -5.0625q0 -1.015625 -0.484375 -1.390625q-0.46875 -0.390625 -1.25 -0.390625q-0.671875 0 -1.328125 0.359375q-0.640625 0.359375 -0.953125 0.84375l0 5.640625l-1.203125 0l0 -7.7343903l1.203125 0l0 1.1250153q0.484375 -0.57814026 1.21875 -0.93751526q0.734375 -0.375 1.53125 -0.375q2.453125 0 2.453125 2.5000153l0 5.421875l-1.1875 0zm3.59729 0l0 -10.67189l1.203125 0l0 10.67189l-1.203125 0zm4.1937866 -8.82814q-0.328125 0 -0.578125 -0.234375q-0.234375 -0.234375 -0.234375 -0.5625q0 -0.34375 0.234375 -0.578125q0.25 -0.25 0.578125 -0.25q0.328125 0 0.5625 0.25q0.25 0.234375 0.25 0.578125q0 0.328125 -0.25 0.5625q-0.234375 0.234375 -0.5625 0.234375zm-0.59375 8.82814l0 -7.7343903l1.203125 0l0 7.7343903l-1.203125 0zm8.818726 0l0 -5.0625q0 -1.015625 -0.484375 -1.390625q-0.46875 -0.390625 -1.25 -0.390625q-0.671875 0 -1.328125 0.359375q-0.640625 0.359375 -0.953125 0.84375l0 5.640625l-1.203125 0l0 -7.7343903l1.203125 0l0 1.1250153q0.484375 -0.57814026 1.21875 -0.93751526q0.734375 -0.375 1.53125 -0.375q2.453125 0 2.453125 2.5000153l0 5.421875l-1.1875 0zm7.081665 0.1875q-1.75 0 -2.84375 -1.125q-1.09375 -1.140625 -1.09375 -2.9375q0 -1.703125 1.078125 -2.875q1.09375 -1.1718903 2.734375 -1.1718903q1.65625 0 2.671875 1.1562653q1.03125 1.15625 1.03125 2.984375l0 0.3125l-6.25 0q0.0625 1.1875 0.84375 1.9375q0.796875 0.734375 1.9375 0.734375q1.40625 0 2.390625 -0.984375l0.578125 0.796875q-1.1875 1.171875 -3.078125 1.171875zm2.40625 -4.546875q0 -1.0625 -0.703125 -1.8125q-0.703125 -0.75001526 -1.84375 -0.75001526q-1.078125 0 -1.796875 0.75001526q-0.703125 0.75 -0.734375 1.8125l5.078125 0z" fill-rule="nonzero"></path><path fill="#ffffff" d="m698.9992 273.0555q-0.328125 0 -0.578125 -0.234375q-0.234375 -0.234375 -0.234375 -0.5625q0 -0.34375 0.234375 -0.578125q0.25 -0.25 0.578125 -0.25q0.328125 0 0.5625 0.25q0.25 0.234375 0.25 0.578125q0 0.328125 -0.25 0.5625q-0.234375 0.234375 -0.5625 0.234375zm-0.59375 8.828125l0 -7.734375l1.203125 0l0 7.734375l-1.203125 0zm8.818787 0l0 -5.0625q0 -1.015625 -0.484375 -1.390625q-0.46875 -0.390625 -1.25 -0.390625q-0.671875 0 -1.328125 0.359375q-0.640625 0.359375 -0.953125 0.84375l0 5.640625l-1.203125 0l0 -7.734375l1.203125 0l0 1.125q0.484375 -0.578125 1.21875 -0.9375q0.734375 -0.375 1.53125 -0.375q2.453125 0 2.453125 2.5l0 5.421875l-1.1875 0zm5.550354 0.1875q-1.71875 0 -1.71875 -1.796875l0 -5.0625l-1.28125 0l0 -1.0625l1.28125 0l0 -2.109375l1.203125 0l0 2.109375l1.5625 0l0 1.0625l-1.5625 0l0 4.796875q0 0.4375 0.1875 0.71875q0.203125 0.28125 0.59375 0.28125q0.5 0 0.8125 -0.328125l0.359375 0.90625q-0.5 0.484375 -1.4375 0.484375zm6.2352905 0q-1.75 0 -2.84375 -1.125q-1.09375 -1.140625 -1.09375 -2.9375q0 -1.703125 1.078125 -2.875q1.09375 -1.171875 2.734375 -1.171875q1.65625 0 2.671875 1.15625q1.03125 1.15625 1.03125 2.984375l0 0.3125l-6.25 0q0.0625 1.1875 0.84375 1.9375q0.796875 0.734375 1.9375 0.734375q1.40625 0 2.390625 -0.984375l0.578125 0.796875q-1.1875 1.171875 -3.078125 1.171875zm2.40625 -4.546875q0 -1.0625 -0.703125 -1.8125q-0.703125 -0.75 -1.84375 -0.75q-1.078125 0 -1.796875 0.75q-0.703125 0.75 -0.734375 1.8125l5.078125 0zm3.1173706 4.359375l0 -7.734375l1.203125 0l0 1.25q1.0625 -1.40625 2.5625 -1.40625l0 1.234375l-0.46875 -0.046875q-0.546875 0 -1.203125 0.390625q-0.65625 0.390625 -0.890625 0.84375l0 5.46875l-1.203125 0zm5.6081543 0l0 -6.671875l-1.28125 0l0 -1.0625l1.28125 0l0 -0.578125q0 -1.203125 0.59375 -1.859375q0.609375 -0.65625 1.65625 -0.65625q0.96875 0 1.625 0.59375l-0.5 0.78125q-0.40625 -0.390625 -0.953125 -0.390625q-1.21875 0 -1.21875 1.53125l0 0.578125l1.5625 0l0 1.0625l-1.5625 0l0 6.671875l-1.203125 0zm9.028015 0l0 -0.875q-0.96875 1.0625 -2.5625 1.0625q-1.171875 0 -1.9375 -0.734375q-0.765625 -0.734375 -0.765625 -1.828125q0 -1.109375 0.75 -1.8125q0.765625 -0.71875 1.953125 -0.71875q1.671875 0 2.5625 1.046875l0 -1.390625q0 -0.78125 -0.5625 -1.203125q-0.546875 -0.421875 -1.390625 -0.421875q-1.359375 0 -2.359375 1.0625l-0.5625 -0.828125q1.234375 -1.28125 3.078125 -1.28125q1.421875 0 2.203125 0.6875q0.796875 0.6875 0.796875 1.921875l0 5.3125l-1.203125 0zm-2.125 -0.671875q1.421875 0 2.125 -0.953125l0 -1.46875q-0.703125 -0.953125 -2.125 -0.953125q-0.84375 0 -1.375 0.46875q-0.53125 0.46875 -0.53125 1.21875q0 0.75 0.53125 1.21875q0.53125 0.46875 1.375 0.46875zm9.135132 0.859375q-1.703125 0 -2.78125 -1.140625q-1.078125 -1.15625 -1.078125 -2.921875q0 -1.734375 1.078125 -2.890625q1.078125 -1.15625 2.78125 -1.15625q1.796875 0 2.828125 1.34375l-0.796875 0.734375q-0.734375 -1.0 -1.96875 -1.0q-1.1875 0 -1.9375 0.828125q-0.734375 0.8125 -0.734375 2.140625q0 1.34375 0.734375 2.171875q0.734375 0.828125 1.9375 0.828125q1.21875 0 1.96875 -1.015625l0.796875 0.734375q-1.03125 1.34375 -2.828125 1.34375zm7.998169 0q-1.75 0 -2.84375 -1.125q-1.09375 -1.140625 -1.09375 -2.9375q0 -1.703125 1.078125 -2.875q1.09375 -1.171875 2.734375 -1.171875q1.65625 0 2.671875 1.15625q1.03125 1.15625 1.03125 2.984375l0 0.3125l-6.25 0q0.0625 1.1875 0.84375 1.9375q0.796875 0.734375 1.9375 0.734375q1.40625 0 2.390625 -0.984375l0.578125 0.796875q-1.1875 1.171875 -3.078125 1.171875zm2.40625 -4.546875q0 -1.0625 -0.703125 -1.8125q-0.703125 -0.75 -1.84375 -0.75q-1.078125 0 -1.796875 0.75q-0.703125 0.75 -0.734375 1.8125l5.078125 0z" fill-rule="nonzero"></path><path fill="#666666" d="m435.1701 329.1184l65.08661 65.08661l4.086609 -4.086609l0 16.346466l-16.346436 0l4.086609 -4.086609l-65.08661 -65.08664z" fill-rule="evenodd"></path><path fill="#b7b7b7" d="m495.77167 448.4134l0 0c0 -26.52707 21.504395 -48.031494 48.031494 -48.031494l0 0c12.7387085 0 24.95575 5.060425 33.96338 14.068085c9.007629 9.00766 14.068115 21.22467 14.068115 33.96341l0 0c0 26.52707 -21.504456 48.031494 -48.031494 48.031494l0 0c-26.5271 0 -48.031494 -21.504425 -48.031494 -48.031494z" fill-rule="evenodd"></path><path fill="#000000" d="m530.2826 454.46088q-1.75 0 -2.84375 -1.125q-1.09375 -1.140625 -1.09375 -2.9375q0 -1.703125 1.078125 -2.875q1.09375 -1.171875 2.734375 -1.171875q1.65625 0 2.671875 1.15625q1.03125 1.15625 1.03125 2.984375l0 0.3125l-6.25 0q0.0625 1.1875 0.84375 1.9375q0.796875 0.734375 1.9375 0.734375q1.40625 0 2.390625 -0.984375l0.578125 0.796875q-1.1875 1.171875 -3.078125 1.171875zm2.40625 -4.546875q0 -1.0625 -0.703125 -1.8125q-0.703125 -0.75 -1.84375 -0.75q-1.078125 0 -1.796875 0.75q-0.703125 0.75 -0.734375 1.8125l5.078125 0zm3.1643066 4.359375l0 -10.671875l4.28125 0q1.53125 0 2.4375 0.921875q0.90625 0.90625 0.90625 2.296875q0 1.40625 -0.921875 2.3125q-0.921875 0.90625 -2.421875 0.90625l-2.953125 0l0 4.234375l-1.328125 0zm4.125 -5.421875q0.96875 0 1.546875 -0.5625q0.578125 -0.5625 0.578125 -1.46875q0 -0.921875 -0.578125 -1.46875q-0.578125 -0.5625 -1.546875 -0.5625l-2.796875 0l0 4.0625l2.796875 0zm10.438843 5.421875l0 -1.09375q-0.453125 0.515625 -1.171875 0.90625q-0.71875 0.375 -1.59375 0.375q-2.453125 0 -2.453125 -2.453125l0 -5.46875l1.203125 0l0 5.09375q0 0.90625 0.40625 1.34375q0.421875 0.421875 1.3125 0.421875q0.703125 0 1.328125 -0.34375q0.625 -0.359375 0.96875 -0.828125l0 -5.6875l1.1875 0l0 7.734375l-1.1875 0zm4.800415 -2.09375q0.3125 0.515625 0.9375 0.875q0.640625 0.34375 1.359375 0.34375q1.140625 0 1.8125 -0.828125q0.6875 -0.828125 0.6875 -2.15625q0 -1.34375 -0.671875 -2.15625q-0.671875 -0.828125 -1.828125 -0.828125q-0.71875 0 -1.359375 0.375q-0.625 0.359375 -0.9375 0.875l0 3.5zm-1.203125 2.09375l0 -10.671875l1.203125 0l0 4.109375q0.984375 -1.359375 2.609375 -1.359375q1.53125 0 2.484375 1.125q0.953125 1.109375 0.953125 2.9375q0 1.859375 -0.953125 2.953125q-0.953125 1.09375 -2.484375 1.09375q-0.828125 0 -1.515625 -0.375q-0.671875 -0.375 -1.09375 -0.96875l0 1.15625l-1.203125 0z" fill-rule="nonzero"></path><path fill="#666666" d="m425.75253 191.27664l65.08661 -65.08661l-4.086609 -4.0866165l16.346436 0l0 16.346458l-4.086609 -4.086609l-65.08661 65.08661z" fill-rule="evenodd"></path><path fill="#b7b7b7" d="m497.016 82.6436l0 0c0 -26.527061 21.504456 -48.031494 48.031494 -48.031494l0 0c12.73877 0 24.95575 5.060444 33.96344 14.0681c9.007629 9.007652 14.068054 21.224648 14.068054 33.963394l0 0c0 26.527061 -21.504395 48.031494 -48.031494 48.031494l0 0c-26.527039 0 -48.031494 -21.504433 -48.031494 -48.031494z" fill-rule="evenodd"></path><path fill="#000000" d="m531.6015 88.5036l0 -10.671875l4.28125 0q1.53125 0 2.4375 0.921875q0.90625 0.90625 0.90625 2.296875q0 1.40625 -0.921875 2.3125q-0.921875 0.90625 -2.421875 0.90625l-2.953125 0l0 4.234375l-1.328125 0zm4.125 -5.421875q0.96875 0 1.546875 -0.5625q0.578125 -0.5625 0.578125 -1.46875q0 -0.921875 -0.578125 -1.46875q-0.578125 -0.5625 -1.546875 -0.5625l-2.796875 0l0 4.0625l2.796875 0zm5.266968 5.421875l0 -10.671875l3.640625 0q2.4375 0 3.953125 1.515625q1.53125 1.515625 1.53125 3.828125q0 2.34375 -1.53125 3.84375q-1.53125 1.484375 -3.953125 1.484375l-3.640625 0zm3.640625 -1.1875q1.828125 0 2.953125 -1.140625q1.140625 -1.140625 1.140625 -3.0q0 -1.859375 -1.125 -3.0q-1.109375 -1.15625 -2.96875 -1.15625l-2.3125 0l0 8.296875l2.3125 0zm7.559387 1.1875l0 -10.671875l6.984375 0l0 1.1875l-5.65625 0l0 3.4375l5.546875 0l0 1.1875l-5.546875 0l0 4.859375l-1.328125 0z" fill-rule="nonzero"></path></g></svg>

